<?xml version="1.0" encoding="UTF-8"?>
<!DOCTYPE svg PUBLIC "-//W3C//DTD SVG 1.1//EN" "http://www.w3.org/Graphics/SVG/1.1/DTD/svg11.dtd">
<svg xmlns="http://www.w3.org/2000/svg" xml:space="preserve" width="100%" height="100%" version="1.1" style="shape-rendering:geometricPrecision; text-rendering:geometricPrecision; image-rendering:optimizeQuality; fill-rule:evenodd; clip-rule:evenodd" viewBox="0 0 4233.32 3386.66" xmlns:xlink="http://www.w3.org/1999/xlink">
    <defs>
        <style type="text/css">
            <![CDATA[
                .color-blue {fill:#477BBE}
                .color-red {fill:#D92027}
                .color-yellow {fill:#FBCE08}
                .orbit-a {
                    animation: orbit-a-rail infinite 5s linear;
                    transform-origin: 2945px 2115px;
                }
                
                @keyframes orbit-a-rail {
                    from { transform: rotate(0deg); }
                    to   { transform: rotate(360deg); }
                }
                .orbit-b {
                    animation: orbit-b-rail infinite 5s linear;
                    transform-origin: 1024px 1650px;
                }
                
                @keyframes orbit-b-rail {
                    from { transform: rotate(0deg); }
                    to   { transform: rotate(-360deg); }
                }
                .orbit-c {
                    animation: orbit-c-rail infinite 5s linear;
                    transform-origin: 1974px 641px;
                }
                
                @keyframes orbit-c-rail {
                    from { transform: rotate(0deg); }
                    to   { transform: rotate(360deg); }
                }
            ]]>
        </style>
    </defs>
    <g id="Layer_x0020_1">
        <metadata id="DRAC-GEARS"/>
        <path class="color-red orbit-a" d="M2895.36 1393.35c421.35,-25.62 746.09,289.34 773.96,667.06 21.54,291.94 -136.08,570.79 -387.2,696.24 -85.45,42.68 -168.83,71.69 -276.15,80.14 -419.63,33.09 -751.04,-288.86 -780.31,-663.78 -32.75,-419.59 293.02,-756.75 669.7,-779.66zm-321.17 1617.21c36.16,16.65 106.37,37.09 116.66,69.56 11.78,37.18 -4.13,137.01 6.89,174.98 8.2,28.25 35.01,24.08 68,26.4 300.47,21.05 247.5,57.6 281.63,-145.13 5.07,-30.16 11.76,-44.14 37.78,-53.14l212.96 -59.46c83.57,-23.42 76.01,0.37 118.19,43.38 16.39,16.72 25.52,34.8 42.8,51.68 14.89,14.56 24.16,38.39 52.36,34.47 21.66,-3.01 87.72,-58.46 110.14,-73.49 164.99,-110.56 146.3,-101.07 91.1,-191.45 -33.86,-55.44 -61.35,-84.36 -32.98,-126.15 13.93,-20.52 24.06,-35.81 38.61,-56.58 134.58,-191.87 79.28,-182.82 267.39,-151.06 77.84,13.14 69.89,-19.31 87.53,-90.39 60.78,-244.94 71.28,-207.98 -32.31,-245.33 -138.83,-50.06 -111.94,-17.84 -131.92,-231.34 -7.34,-78.43 -24.86,-121.68 20.95,-146.74 172.25,-94.22 151,-83.61 100.14,-188.91 -97.44,-201.71 -71.06,-199 -165.39,-164.98 -33.6,12.12 -106.99,50.86 -139.87,31.9l-185.42 -180.91c-52.44,-46.52 28.09,-151.39 31.89,-204.9 2.28,-32.21 -16.05,-35.58 -42.08,-46.46 -42.74,-17.88 -82.85,-37.92 -125.46,-56.88 -147.06,-65.41 -109.76,-63.19 -198.15,86.82 -37.27,63.25 -63.04,37.37 -136.12,27.34 -64.26,-8.82 -119.81,-1.21 -177.58,-6.68 -44.41,-4.2 -57.05,-71.14 -72.18,-111.94 -21.16,-57.1 -17.15,-91.37 -90.16,-71.09 -48.68,13.52 -95.6,27.87 -142.9,40.17 -83.89,21.8 -113.28,20.33 -105.27,73.83 21.96,146.62 54.31,150.3 -21.21,203.31l-107.17 77.07c-112.68,90.49 -104.82,64.69 -180.59,27.62 -33.16,-16.21 -92.93,-71.02 -125.68,-30.36l-38.32 56.85c-105.92,167.69 -147.05,163.06 -77.37,221.84 104.81,88.42 123.86,72.89 100.67,158.41 -13.25,48.83 -25.79,100.3 -38.26,149.7 -17.37,68.82 -7.99,94.19 -78.24,107.49 -194.12,36.76 -157.04,-9.24 -129.52,285.08 2.78,29.85 1.3,54.18 25.23,63.73 31.52,12.57 138.15,-6.34 175.97,4.42 30.08,8.56 49.64,65.72 70.97,108.96 105.71,214.43 83.59,168.24 27.28,246.36 -35.43,49.15 -82.14,79.27 -55.74,114.06l91.56 89.34c93.68,89.1 100.26,133.07 157.43,85.99l50.69 -39.61c84.82,-67.76 39.04,-82.68 245.07,12.22z"/>
        <path class="color-blue orbit-b" d="M876.85 2186.32l70.67 -166.14c212.88,40.72 406.1,-95.84 446.32,-292.3 2.83,-13.84 3.25,-32.96 6,-44.28 14.5,-4.28 157.12,-20.15 180.29,-21.94 -2.53,96.69 -27.41,175.97 -65.08,248.76 -8.99,17.37 -19.75,33.85 -28.96,49.51 -5.39,9.17 -11.62,14.05 -16.59,21.52 -66.1,99.47 -194.19,178.57 -312.55,208.4 -99.85,25.16 -183.27,18.59 -280.1,-3.53zm26.44 -519.6c-10.28,-71.87 41.12,-129.33 102.97,-137.84 71.96,-9.91 128.85,41.17 137.47,103.36 9.91,71.52 -41.86,127.98 -102.58,137.02 -71.98,10.72 -129.16,-41.68 -137.86,-102.54zm-258.37 -10.86c2.65,145.41 83.94,249.64 160.41,303.1l-51.48 121.58c-6.92,14.97 -14.29,28.36 -17.83,43.6 -10.78,-2.77 -45.56,-27.79 -55.31,-35.76 -202.17,-165.27 -270.74,-427.3 -165.68,-666.47 7.73,-17.59 14.54,-30.26 23.99,-46.88 29.03,-51.09 51.79,-77.64 90.84,-121.57 11.82,6.6 19.57,23.01 28.54,34.56 8.51,10.97 18.68,24.28 27.42,36.3l53.36 72.87c-49.77,64.19 -96.39,141.74 -94.26,258.67zm112.13 -496.18c15.35,-5.53 35.75,-17.66 53.51,-25.25 168.31,-71.95 361.44,-49.03 512.84,45.56 16.62,10.38 31.89,23.19 47.68,33.51 26.37,17.22 60.33,56.7 81.52,81.35 23.55,27.39 44.8,60.32 64.59,96.23 9.83,17.83 44.79,98.01 43.72,117.98l-176.61 20.31c-0.42,-0.83 -0.94,-2.34 -1.08,-1.95l-2.84 -5.11c-16.37,-35.04 -18.86,-52.51 -47.83,-92.79 -7.47,-10.38 -16.28,-18.79 -23.13,-27.87 -29.08,-38.53 -69.12,-66.39 -113.43,-89.96 -85.4,-45.43 -200.34,-53.31 -293.96,-21.41 -13.13,4.47 -25.9,11.39 -38.27,14.31l-14.31 -17.36c-4.34,-6.09 -8.62,-13.07 -12.48,-18.1l-73.39 -97.59c-0.81,-1.18 -6.5,-11.82 -6.53,-11.86zm-363.13 1140c13.25,12.1 22.38,23.54 36,35.27 64.21,55.32 53.28,65.34 103.09,22.69l36.61 -32.14c23.25,-19.84 39.2,-43.02 70.78,-29.72l146.61 63.24c75.8,32 49.93,26.77 58.23,156.39 2.57,40.21 40.51,32.09 105.94,36.07 146.53,8.89 143.07,20.88 152.47,-45.28 17.18,-120.88 9.46,-106.47 83.09,-127.57 36.57,-10.48 72.56,-22.15 110.34,-33.22 65.18,-19.1 58.62,-16.74 93.84,23.17l33.31 38.03c7.63,9.24 23.35,29.97 38.47,32.76 10.76,1.98 17.47,-1.62 24.93,-7.32 7.13,-5.45 12.86,-9.99 20.66,-15.2 14.45,-9.67 26.99,-20.29 40.93,-30.62 133.18,-98.75 120,-75.2 76.27,-148.99 -25,-42.19 -51.62,-66.55 -32.82,-96.76l83.52 -126.94c42.56,-64.5 33.4,-60.22 141.51,-42.78 66.38,10.71 59.12,0.83 73.43,-57.42 9.5,-38.67 17.44,-76.45 26.94,-114.2 3.91,-15.52 13.49,-44.01 6.45,-57.82 -13.61,-26.69 -124.59,-33.83 -143.96,-65.94 -8.95,-14.82 -15.06,-101.03 -18.02,-125.71 -14.37,-119.47 -22.8,-100.57 46.45,-145.93 38.12,-24.97 78.71,-37.7 68.82,-69.75l-70.87 -141.68c-23.36,-47.55 -20.54,-65.6 -77.13,-42.98 -20.5,8.2 -87.96,40.3 -108.88,33.65 -12.32,-3.91 -61.46,-55.03 -73.9,-66.11 -25.7,-22.9 -48.52,-45.3 -74,-68.41 -11.84,-10.75 -26.8,-21.31 -19.98,-48.99 3.59,-14.56 11.59,-35.34 16.8,-51.3 18.21,-55.73 36.21,-77.69 -5.94,-94.98 -231.49,-94.97 -181.06,-112.34 -252.21,18.21 -27.49,50.44 -34.9,39.67 -97.91,36.35 -43.64,-2.3 -86.89,-5.67 -130.58,-7.69 -50.7,-2.34 -44.02,-15.57 -68.17,-74.39 -23.7,-57.73 -22.09,-82.98 -65.78,-69.25l-165.82 50.1c-20.89,6.25 -36.73,8.61 -33.66,34.8 3.9,33.41 23.48,92.9 22.79,121.78 -0.56,23.68 -15.56,27.28 -33.22,38.4 -62.54,39.36 -64.02,38.23 -122.73,91.57 -42.05,38.19 -44.51,27.4 -93.8,1.11 -86.82,-46.3 -83.63,-57.89 -127.1,13.16 -20.92,34.18 -66.97,99.3 -83.09,127.46 -14.9,26.04 6.56,37.27 17.58,45.79 13.43,10.38 24.6,20.12 38.03,30.61 48.57,37.93 59.61,41.84 49.61,82.6 -9.63,39.32 -17.89,75.6 -27,114.14 -13.55,57.37 -11.02,85.08 -47.39,94.47 -116.4,30.04 -136.58,2.93 -127.08,81.11 4.19,34.47 16.11,176.29 26.96,186.64 15.71,14.98 104.93,3.36 134.75,4.54 33.16,1.31 42.7,35.26 63.42,77.88 15.04,30.96 31.38,65.3 47.69,95.64 8.1,15.06 21.04,31.81 14.79,52.37 -2.56,8.44 -23.78,33.55 -29.86,40.96 -11.58,14.14 -21.16,25.75 -31.3,39.73 -8.15,11.23 -26.69,27.22 -19.34,48.7 4.05,11.83 58.48,58.78 70.43,69.7z"/>
        <g id="_2720330391312">
            <polygon class="color-blue" points="3485.06,2188.06 3558.39,2188.06 2873.96,1503.63 2873.96,2372.01 2543.35,2041.39 2470.64,2041.39 2971.74,2542.49 2971.74,2603.61 2409.53,2041.39 2336.19,2041.4 3020.62,2725.83 3020.63,1858.16 3350.52,2188.06 3423.95,2188.06 2922.85,1686.96 2922.85,1625.85 "/>
            <path class="color-blue" d="M2947.33 1454.74c364.48,0 659.95,295.47 659.95,659.95 0,364.48 -295.47,659.95 -659.95,659.95 -364.48,0 -659.95,-295.47 -659.95,-659.95 0,-364.48 295.47,-659.95 659.95,-659.95zm-0.04 48.89c337.5,0 611.1,273.6 611.1,611.1 0,337.5 -273.6,611.1 -611.1,611.1 -337.5,0 -611.1,-273.6 -611.1,-611.1 0,-337.5 273.6,-611.1 611.1,-611.1z"/>
        </g>
        <path class="color-yellow orbit-c" d="M1951.76 299.06c199.49,-12.13 353.25,137 366.44,315.84 10.2,138.22 -64.42,270.25 -183.33,329.65 -40.45,20.21 -79.93,33.94 -130.74,37.95 -198.69,15.66 -355.6,-136.77 -369.46,-314.29 -15.51,-198.66 138.74,-358.3 317.09,-369.15zm-152.07 765.71c17.12,7.89 50.36,17.56 55.24,32.94 5.57,17.6 -1.96,64.87 3.26,82.84 3.88,13.38 16.57,11.41 32.19,12.5 142.27,9.97 117.19,27.28 133.35,-68.71 2.4,-14.28 5.57,-20.9 17.89,-25.16l100.83 -28.16c39.57,-11.08 35.98,0.18 55.96,20.55 7.76,7.91 12.08,16.47 20.26,24.47 7.05,6.89 11.44,18.17 24.79,16.31 10.26,-1.42 41.54,-27.68 52.15,-34.79 78.12,-52.35 69.27,-47.85 43.13,-90.65 -16.03,-26.25 -29.04,-39.94 -15.61,-59.73 6.59,-9.71 11.39,-16.95 18.28,-26.78 63.72,-90.85 37.54,-86.57 126.6,-71.53 36.86,6.22 33.09,-9.14 41.45,-42.8 28.78,-115.97 33.75,-98.47 -15.3,-116.16 -65.73,-23.69 -53,-8.44 -62.46,-109.53 -3.48,-37.13 -11.77,-57.61 9.92,-69.47 81.56,-44.62 71.49,-39.59 47.41,-89.45 -46.14,-95.5 -33.65,-94.22 -78.31,-78.12 -15.91,5.74 -50.65,24.09 -66.22,15.11l-87.79 -85.65c-24.83,-22.03 13.3,-71.69 15.09,-97.02 1.09,-15.25 -7.59,-16.85 -19.92,-22 -20.23,-8.46 -39.23,-17.96 -59.4,-26.93 -69.63,-30.97 -51.97,-29.92 -93.82,41.1 -17.65,29.95 -29.85,17.7 -64.45,12.95 -30.42,-4.17 -56.73,-0.57 -84.08,-3.16 -21.03,-1.99 -27.01,-33.69 -34.17,-53 -10.02,-27.04 -8.12,-43.26 -42.69,-33.66 -23.05,6.4 -45.27,13.2 -67.66,19.02 -39.72,10.32 -53.64,9.63 -49.84,34.96 10.39,69.42 25.71,71.16 -10.05,96.26l-50.74 36.49c-53.35,42.84 -49.63,30.63 -85.51,13.08 -15.69,-7.68 -43.99,-33.63 -59.5,-14.38l-18.14 26.92c-50.16,79.4 -69.63,77.2 -36.64,105.03 49.63,41.87 58.65,34.52 47.67,75.01 -6.28,23.12 -12.21,47.48 -18.12,70.88 -8.22,32.58 -3.78,44.59 -37.04,50.89 -91.92,17.4 -74.36,-4.38 -61.33,134.98 1.32,14.13 0.62,25.65 11.95,30.17 14.92,5.95 65.41,-3 83.32,2.1 14.24,4.05 23.5,31.11 33.6,51.59 50.05,101.52 39.58,79.65 12.92,116.64 -16.78,23.27 -38.9,37.53 -26.4,54.01l43.36 42.3c44.35,42.18 47.47,63 74.53,40.71l24 -18.75c40.16,-32.09 18.49,-39.15 116.04,5.78z"/>
        <g id="_2720330390864">
            <path class="color-red" d="M2208.46 521.41c-21.58,-7.84 -44.21,-11.82 -67.39,-11.82 -13.32,0 -26.47,1.44 -39.32,4.05 22.6,34.89 35.49,76.55 34.73,121.04 -1.49,88.63 -56.23,164.04 -132.92,196.67 15.28,3.74 30.97,5.76 46.94,5.76l0.01 0c62.55,0 121.99,-29.8 158.98,-79.7 51.93,-70.03 51.26,-166.29 -1.03,-236z"/>
            <path class="color-blue" d="M2116.38 634.35c0.71,-42.27 -12.32,-82.29 -35.3,-115.37 -38.8,12.33 -73.42,36.36 -98.19,69.33 45.58,70.03 45.52,158.31 5.55,227.49 75,-28.33 126.57,-99.98 127.94,-181.45z"/>
        </g>
        <g id="_2720330388048">
            <path class="color-yellow" d="M1813.5 629.64c0.7,-42.07 13.54,-81.09 34.89,-114.06 -15.59,-3.9 -31.72,-5.99 -48.08,-5.99 -23.17,0 -45.8,3.98 -67.38,11.82 -52.28,69.71 -52.96,165.97 -1.03,236 37,49.91 96.44,79.7 159,79.7 16.94,0 33.6,-2.17 49.76,-6.38 -76.05,-34.97 -128.65,-112.4 -127.16,-201.09z"/>
            <path class="color-blue" d="M1958.5 588.31c-23.03,-30.66 -54.56,-53.64 -90.07,-66.62 -21.45,31.19 -34.15,68.53 -34.82,108.28 -1.34,79.84 46.1,151.8 117.93,183.52 -38.61,-68.82 -38.1,-155.93 6.96,-225.18z"/>
        </g>
        <g id="_2720330387824">
            <path class="color-blue" d="M1978.52 422.12c-47.02,11.77 -88.17,38.98 -117.64,75.94 6.88,1.97 13.66,4.37 20.34,7.02 34.14,13.54 65.16,35.84 89.47,66.37 26.17,-32.86 60.09,-56.25 97.29,-69.37 6.9,-2.43 13.91,-4.43 20.99,-6.16 -27.91,-34.91 -66.32,-61.17 -110.45,-73.8z"/>
            <path class="color-blue" d="M1970.69 806.3c35.94,-61.5 36.14,-138.06 0,-199.53 -36.13,61.47 -35.93,138.03 0,199.53z"/>
        </g>
    </g>
</svg>
