<?xml version="1.0" encoding="UTF-8"?>
<!DOCTYPE svg PUBLIC "-//W3C//DTD SVG 1.1//EN" "http://www.w3.org/Graphics/SVG/1.1/DTD/svg11.dtd">
<!-- Creator: CorelDRAW 2018 (64-Bit) -->
<svg xmlns="http://www.w3.org/2000/svg" xml:space="preserve" width="100%" height="100%" version="1.1" style="shape-rendering:geometricPrecision; text-rendering:geometricPrecision; image-rendering:optimizeQuality; fill-rule:evenodd; clip-rule:evenodd"
viewBox="0 0 4233.32 4233.32"
 xmlns:xlink="http://www.w3.org/1999/xlink">
 <defs>
  <style type="text/css">
   <![CDATA[
    .fil1 {fill:#333333}
    .fil0 {fill:#666666}
    .fil2 {fill:#999999}
   ]]>
  </style>
 </defs>
 <g id="Layer_x0020_1">
  <metadata id="CorelCorpID_0Corel-Layer"/>
  <circle class="fil0" cx="2116.67" cy="2116.67" r="2116.67"/>
  <path class="fil1" d="M2116.66 0c1169,0 2116.67,947.67 2116.67,2116.66 0,1169 -947.67,2116.67 -2116.67,2116.67 -1168.99,0 -2116.66,-947.67 -2116.66,-2116.67 0,-1168.99 947.67,-2116.66 2116.66,-2116.66zm0.01 142.53c1090.27,0 1974.13,883.86 1974.13,1974.14 0,1090.27 -883.86,1974.13 -1974.13,1974.13 -1090.28,0 -1974.14,-883.86 -1974.14,-1974.13 0,-1090.28 883.86,-1974.14 1974.14,-1974.14z"/>
  <path class="fil2" d="M2737.47 2664.69c-119.9,-63.44 -207,-170.67 -270.63,-290.93 26.5,0.59 27.54,4.5 50.42,10.47 91.81,23.93 204.03,34.91 297.27,5.7 31.01,-9.72 67.78,-28.88 92.08,-50l-121.45 243.9c-16.27,28.44 -29.99,54.41 -47.69,80.86zm-719.25 -2280.06l189.22 0c250.01,10.55 498.42,62.9 732.04,156.58 35.52,14.24 66.63,28.38 104.4,44.44 44.91,19.09 60.3,23.9 81.66,67.18 116.68,236.34 288.5,635.67 288.5,915.8 0,207.37 15.75,522.25 -21.96,708.74 -9.78,48.36 -19.8,105.8 -33.49,155.96 -101.43,372.05 -214.19,622.44 -454.01,905.91l-254.06 260.13c-36.39,29.13 -66.45,56.04 -105.33,84.1 -38.25,27.6 -73.83,50.02 -115.01,74.43 -118.34,70.17 -211.21,90.79 -348.99,90.79 -181.59,0 -368.75,-142.92 -501.68,-249.32 -76.74,-61.44 -136.9,-136.6 -190.14,-188.74 -61.51,-60.26 -210.09,-248.8 -246.3,-315.26 -81.1,-148.87 -115.98,-205.46 -182.14,-379.41 -56.73,-149.17 -144.93,-443.88 -144.93,-606.07l0 -541.26c0,-280.4 164.41,-664.46 288.49,-915.8 28.62,-57.96 108.98,-80.63 190.89,-113.57 230.82,-92.83 476,-144.19 722.84,-154.63zm-701.56 1962.07c13.69,-15.95 9.24,10.76 88.74,39.81 94.33,34.47 208.4,21.75 301.97,-0.93 20.5,-4.96 27.57,-11.19 55.83,-11.82 -64.16,121.25 -149.62,226.89 -270.63,290.93l-175.91 -317.99zm1089.29 -155.62c49.6,-74.07 426.23,-108.79 426.23,-27.06 0,78.88 3.47,94.72 -148.84,94.72 -82.17,0 -246.23,-25.11 -277.39,-67.66zm-859.26 67.66c-152.31,0 -148.84,-15.84 -148.84,-94.72 0,-82.42 377.33,-45.98 426.24,27.06 -31.17,42.55 -195.22,67.66 -277.4,67.66zm872.79 -236.8l41.11 -249.81c16.79,-83.46 34.72,-161.02 54.95,-242.75 34.3,-138.57 40.83,-151.42 224.75,-221.78 34.25,-13.1 78.37,-28.78 112.19,-36.66 31.92,66.51 130.62,708.5 128.23,791.2 -0.69,24.1 -6.45,27.77 -6.45,61.29 -33.77,-38.86 -45.26,-123.86 -228.78,-150.11 -75.28,-10.77 -172.85,4.46 -247.23,25.91l-78.77 22.71zm-1163.71 101.49c0,-72.01 -8.87,-8.72 -0.56,-108.73 3.57,-42.96 4.42,-69.42 10.18,-111.69 12.01,-88.18 78.22,-561.32 112.17,-632.07 36.39,17.46 245.99,67.65 299.12,140.64 34.09,46.84 99.62,398.59 113.61,481.79 4.12,24.52 13.35,114.15 20.27,128.57 -62.04,-5.16 -395.16,-161.26 -543.72,85.49 -8.49,14.11 -2.21,5.8 -11.07,16zm1732.03 -940.45c0,-91.21 53.05,-219.49 74.42,-311.22l19.49 34.64c222.07,548.79 183.49,576.02 183.49,1203.49 0,56.11 -16.07,124.49 -25.38,170.84 -50.7,252.65 -142.75,511.65 -273.55,727.78 -28.53,47.15 -47,79.46 -81.5,121.46 -16.39,19.93 -28.87,36.99 -44.86,56.64 -11.66,14.32 -35.57,44.63 -48.32,53.16l26.48 -284.74c17.09,-204.24 11.53,-153.79 126.31,-347.3l105.36 -212.63c14.91,-37.3 30.92,-74.44 43.54,-118.84 57.35,-201.83 24.78,-351.5 -3.61,-559.17 -12.6,-92.21 -29.05,-187.34 -46.05,-271.93l-55.82 -262.18zm-1549.35 2056.79c-40.01,-26.78 -143.35,-179.56 -172.11,-227.08 -91.19,-150.7 -192.33,-385.19 -236.58,-561.77 -21.58,-86.11 -64.92,-253.52 -64.92,-341.03l0 -548.02c0,-205.72 106.29,-462.89 181.62,-650.57l21.35 -39.54 40.56 148.89c55.48,207.72 30.16,164.57 -20.83,418.87 -22.66,113.07 -75.48,434.61 -80.67,555.31 -6.82,158.69 9.75,239.44 69.63,390.55 15.19,38.34 31.66,76.01 49.87,112.49l84.87 151.94c11.15,18.59 17.81,32.29 29.53,51.66 68.45,113.1 60.45,92.87 70.85,247.14l26.83 291.16zm-169.15 -2530.38c21.71,-5.06 60.78,-24.34 82.16,-32.86 392.33,-156.56 848.32,-189.49 1261.51,-86.22 63.86,15.97 120.62,31.03 177.64,52.39l170.13 66.69c-6.19,26.55 -24.22,67.73 -33.03,95.51 -18.12,57.12 -77.77,266.47 -81.99,317.19 -49.91,4.16 -202.43,67.17 -243.6,87.94 -223.01,112.51 -198.38,158.79 -262.53,414.04 -24.42,97.18 -96.12,504.93 -79.93,591.46 33.07,176.73 106.5,292.72 211.92,417.35 58.19,68.8 131.18,131.25 211.76,173.89l-24.12 239.73c-3.61,25.64 -7.63,58.3 -9.2,78.77l-27.39 283.82c-5.89,34.22 -9.65,31.06 -62.06,73.26 -17.82,14.34 -27.84,25.36 -47.25,40.71 -35.18,27.84 -65.32,52.44 -104.55,78.12 -254.52,166.66 -460.98,111.25 -684.62,-72.03 -138.07,-113.15 -112.84,-73.52 -129.02,-229.56 -6.23,-60.1 -11.61,-109.74 -14.8,-167.87 -3.88,-70.68 -33.64,-266.73 -33.64,-324.95 40.57,-21.47 157.07,-109.92 187.9,-143.63l75.98 -93.17c79.28,-105.52 128.5,-209.72 158.59,-348.85 18.59,-85.98 -53.4,-490.44 -77.41,-591.6 -59.1,-248.95 -43.14,-308.42 -259.34,-417.22 -38.34,-19.3 -77.6,-35.78 -118.68,-50.47 -30.09,-10.75 -95.46,-36.91 -129.41,-39.74 -2.77,-33.29 -14.65,-72.15 -23.01,-105.54l-57.32 -206.54c-5.8,-18.96 -9.93,-30.57 -16.87,-50.78 -5.74,-16.74 -11.65,-36.04 -17.82,-49.84z"/>
 </g>
</svg>
