<?xml version="1.0" encoding="UTF-8"?>
<!DOCTYPE svg PUBLIC "-//W3C//DTD SVG 1.1//EN" "http://www.w3.org/Graphics/SVG/1.1/DTD/svg11.dtd">
<!-- Creator: CorelDRAW 2018 (64-Bit) -->
<svg xmlns="http://www.w3.org/2000/svg" xml:space="preserve" width="100%" height="100%" version="1.1" style="shape-rendering:geometricPrecision; text-rendering:geometricPrecision; image-rendering:optimizeQuality; fill-rule:evenodd; clip-rule:evenodd"
viewBox="0 0 2116.66 2116.66"
 xmlns:xlink="http://www.w3.org/1999/xlink">
 <defs>
  <style type="text/css">
   <![CDATA[
    .fil0 {fill:#CCCCCC}
   ]]>
  </style>
 </defs>
 <g id="Layer_x0020_1">
  <metadata id="CorelCorpID_0Corel-Layer"/>
  <g id="_2445540785968">
   <path class="fil0" d="M1504.21 1434.56c-100.94,-152.32 -284.14,-246.13 -352.32,-274.88 -36.09,64.48 -83.43,134.51 -145.12,211.21 -129.69,163.46 -260.46,431.54 -220.19,745.78 535.68,-59.09 702.95,-461.17 717.63,-682.08l0 -0.03z"/>
   <path class="fil0" d="M1785.52 0c-240.3,8.99 -532.42,310.8 -432.49,592.28 105.83,279.29 173.61,477.94 187.78,789.55 253.97,-255.52 487.3,-532.92 506.12,-854.8 6.16,-261.21 -117.47,-453.7 -261.38,-527.03l-0.03 0z"/>
   <path class="fil0" d="M584.12 923.19c179.56,53.19 305.32,85.89 441.48,135.35 199.08,72.32 355.38,164.67 479.18,324.06 -22.96,-274.2 -135.92,-588.47 -316.26,-833.59 -257.3,-349.66 -702.88,-517.53 -1116.91,-353.7 -19.03,245.86 86.16,611.47 512.48,727.84l0.03 0.04zm-29.43 -688.52c153.25,0 277.48,124.23 277.48,277.47 0,153.25 -124.23,277.48 -277.48,277.48 -153.25,0 -277.48,-124.23 -277.48,-277.48 0,-153.24 124.23,-277.47 277.48,-277.47zm-39.21 30.82l285.87 285.87c2.01,-12.78 3.07,-25.87 3.07,-39.22 0,-137.92 -111.81,-249.73 -249.73,-249.73 -13.34,0 -26.44,1.06 -39.21,3.08zm285.82 286.17l-39.1 0 -207.51 -207.45 0 29.64 177.81 177.81 -39.52 0 -98.78 -98.79 0 305.88c106.27,-16.89 190.2,-100.82 207.1,-207.09zm-207.4 207.14l-285.87 -285.87c-2.01,12.78 -3.07,25.87 -3.07,39.21 0,137.93 111.81,249.73 249.73,249.73 13.34,0 26.44,-1.06 39.21,-3.07zm-285.82 -286.17l39.16 0 207.45 207.45 0 -29.64 -177.81 -177.81 39.51 0 98.79 98.79 0 -305.88c-106.28,16.89 -190.2,100.82 -207.1,207.09z"/>
  </g>
 </g>
</svg>
